{"title":"Man Of Tai Chi 2013 DVDSCR.flv","uid":8669238,"size":508975625,"categoryP":"video","categoryS":"movies","magnet":"?xt=urn:btih:e054938dd6c264e122ca47db534f13f000989d34&amp;dn=Man+Of+Tai+Chi+2013+DVDSCR.flv&amp;tr=udp%3A%2F%2Ftracker.openbittorrent.com%3A80&amp;tr=udp%3A%2F%2Fopen.demonii.com%3A1337&amp;tr=udp%3A%2F%2Ftracker.coppersurfer.tk%3A6969&amp;tr=udp%3A%2F%2Fexodus.desync.com%3A6969","seeders":1,"leechers":0,"uploader":"globeplus","files":-1,"time":1373469723,"description":"Man Of Tai Chi 2013 DVDSCR.flv\n\nGeneral\n\nFormat                                   : Flash Video\nFile size                                : 485 MiB\nDuration                                 : 1h 36mn\nOverall bit rate                         : 702 Kbps\nWriting application                      : Encoded By\nTagging application                      : Yet Another Metadata Injector for FLV - Version 1.9\n\nVideo\n\nFormat                                   : AVC\nFormat/Info                              : Advanced Video Codec\nFormat profile                           : &lt;a class=&quot;__cf_email__&quot; href=&quot;/cdn-cgi/l/email-protection&quot; data-cfemail=&quot;266e4f414e666a150816&quot;&gt;[email&amp;#160;protected]&lt;/a&gt;&lt;script cf-hash='f9e31' type=&quot;text/javascript&quot;&gt;\n/* &lt;![CDATA[ */!function(){try{var t=&quot;currentScript&quot;in document?document.currentScript:function(){for(var t=document.getElementsByTagName(&quot;script&quot;),e=t.length;e--;)if(t[e].getAttribute(&quot;cf-hash&quot;))return t[e]}();if(t&amp;&amp;t.previousSibling){var e,r,n,i,c=t.previousSibling,a=c.getAttribute(&quot;data-cfemail&quot;);if(a){for(e=&quot;&quot;,r=parseInt(a.substr(0,2),16),n=2;a.length-n;n+=2)i=parseInt(a.substr(n,2),16)^r,e+=String.fromCharCode(i);e=document.createTextNode(e),c.parentNode.replaceChild(e,c)}}}catch(u){}}();/* ]]&gt; */&lt;/script&gt;\nFormat settings, CABAC                   : Yes\nFormat settings, ReFrames                : 4 frames\nCodec ID                                 : 7\nDuration                                 : 1h 36mn\nBit rate                                 : 600 Kbps\nWidth                                    : 720 pixels\nHeight                                   : 408 pixels\nDisplay aspect ratio                     : 16:9\nFrame rate mode                          : Constant\nFrame rate                               : 23.976 fps\nColor space                              : YUV\nChroma subsampling                       : 4:2:0\nBit depth                                : 8 bits\nScan type                                : Progressive\nBits/(Pixel*Frame)                       : 0.085\nStream size                              : 414 MiB (85%)\nWriting library                          : x264 core 128 r2 198a7ea\n\n\nAudio\n\nFormat                                   : AAC\nFormat/Info                              : Advanced Audio Codec\nFormat profile                           : LC\nCodec ID                                 : 10\nDuration                                 : 1h 36mn\nBit rate                                 : 94.4 Kbps\nChannel(s)                               : 2 channels\nChannel positions                        : Front: L R\nSampling rate                            : 44.1 KHz\nCompression mode                         : Lossy\nDelay relative to video                  : 19ms\nStream size                              : 69.5 MiB (14%)\n\n\nSynopse :\n\nMan of Tai Chi is a 2013 Chinese-American martial arts film directed by and starring Keanu Reeves. The film is Reeves' first in a directing role. Man of Tai Chi is a multilingual narrative, partly inspired by the life of Reeves' friend, stuntman Tiger Chen.\n\nPre-production began in 2008 with years-long script refinements. During Man of Tai Chi's five years of scripting and production, Reeves acted in several B movies with lead roles as Henry in 2010's Henry's Crime and John in 2012's Generation Um.... When the project eventually moved into the production phase, filming occurred on mainland China and Hong Kong. The film premiered in 2013 with showings at the Beijing Film Festival and Cannes Film Festival. The work was awarded in Beijing and praised by recognized director of action genre films, John Woo.\n\n\n\n\n* enjoy ...","torrent":{"xt":"urn:btih:e054938dd6c264e122ca47db534f13f000989d34","amp;dn":"Man+Of+Tai+Chi+2013+DVDSCR.flv","amp;tr":["udp%3A%2F%2Ftracker.openbittorrent.com%3A80","udp%3A%2F%2Fopen.demonii.com%3A1337","udp%3A%2F%2Ftracker.coppersurfer.tk%3A6969","udp%3A%2F%2Fexodus.desync.com%3A6969"],"infoHash":"e054938dd6c264e122ca47db534f13f000989d34","infoHashBuffer":{"type":"Buffer","data":[224,84,147,141,214,194,100,225,34,202,71,219,83,79,19,240,0,152,157,52]},"announce":[],"urlList":[]}}